<?xml version="1.0" encoding="UTF-8"?><svg version="1.1" viewBox="28 16 158 264" xmlns="http://www.w3.org/2000/svg" xmlns:cc="http://creativecommons.org/ns#" xmlns:dc="http://purl.org/dc/elements/1.1/" xmlns:rdf="http://www.w3.org/1999/02/22-rdf-syntax-ns#"><metadata><rdf:RDF><cc:Work rdf:about="based on artwork by Christopher T. Howlett and Vladimir Belochkin; cycle powered by NIM."><dc:format>image/svg+xml</dc:format><dc:title>the delb software library project logo</dc:title></cc:Work></rdf:RDF></metadata><style type="text/css">#s{fill:#0064e0}#t{fill:#780000}</style><path id="t" transform="translate(28,16)" d="m124.77 1.4512c-17.88 0.00107-32.424 14.547-32.424 32.426 0 16.504 12.403 30.14 28.373 32.146v58.322c0 18.466-14.211 33.655-32.266 35.256v-33.512c15.967-2.0064 28.373-15.641 28.373-32.148 0-17.879-14.548-32.424-32.426-32.424-17.879 0-32.426 14.545-32.426 32.424 0 16.504 12.753 30.016 28.369 32.148v78.979c-15.358-0.44148-28.464-10.616-32.826-25.055 15.21-2.6687 26.369-15.943 26.369-31.908 0-16.501-11.958-30.137-27.928-32.143v-41.264c15.967-2.0064 28.373-15.639 28.373-32.146 0-17.879-14.55-32.424-32.428-32.424-17.879 0-32.428 14.548-32.428 32.426 0 16.504 12.402 30.14 28.369 32.146v41.264c-15.967 2.0064-28.369 15.639-28.369 32.143 0 16.968 13.103 30.906 29.719 32.289 4.7449 18.874 21.473 32.324 41.146 32.785l-0.0078 33.271c-7.7361 0.94149-14.621 4.5376-19.443 9.8574-0.05793 0.0592-0.10839 0.11508-0.1582 0.16797-9.56e-4 1e-3 -9.99e-4 3e-3 -2e-3 4e-3 -0.64673 0.7376-1.0035 1.685-1.0039 2.666 8.28e-4 2.2344 1.8125 4.0452 4.0469 4.0449 0.97016-9e-5 1.908-0.34874 2.6426-0.98242 0.0026 8e-5 0.0052-9e-5 0.0078 0 5.3766-5.3065 10.843-7.9277 17.965-7.9277 7.1539 0 12.798 2.4289 17.393 7.3691 0.78546 0.94143 2.0918 1.5271 3.1757 1.541 2.2344 2.8e-4 4.0461-1.8105 4.0469-4.0449-1.6e-4 -0.95869-0.34069-1.8862-0.96093-2.6172-0.0617-0.0786-0.14012-0.1537-0.20119-0.2207-5.2352-5.7804-11.516-8.8963-19.387-9.8633v-78.732c22.531-1.6264 40.379-18.014 40.379-43.369v-58.324c15.965-2.0064 28.365-15.641 28.365-32.148l-4e-3 0.0039c0-17.878-14.544-32.425-32.424-32.426h-2e-3zm4e-3 8.1152c13.408 0 24.314 10.908 24.314 24.312 0 13.408-10.907 24.311-24.314 24.311s-24.311-10.905-24.311-24.311c0-13.405 10.905-24.312 24.311-24.312zm-82.871 8.6816c13.407 0 24.314 10.907 24.314 24.311 0 13.408-10.907 24.314-24.314 24.314s-24.312-10.907-24.312-24.314c0-13.405 10.906-24.311 24.312-24.311zm42.494 51.385c13.408 0 24.314 10.907 24.314 24.311 0 13.408-10.907 24.314-24.314 24.314-13.408 0-24.312-10.907-24.312-24.314 0-13.405 10.906-24.311 24.312-24.311zm-42.494 54.164c13.407 0 24.314 10.907 24.314 24.311 0 13.408-10.907 24.314-24.314 24.314s-24.312-10.907-24.312-24.314c0-13.405 10.906-24.311 24.312-24.311z"/><g id="e"><path id="s" d="m73.955 120.82c0 2.7216 0.0078 9.8475 0.0078 11.145 18.539 2.5848 28.072 18.505 27.926 32.143-0.0111 12.807-7.2952 24.48-19.105 29.697v7.3379c0 12.868 12.612 20.185 25.562 21.404v-14.609c-3.0815-1.111-4.8125-3.6081-4.8125-6.6875v-60.357c-1.9525-14.902-15.75-19.056-29.578-20.072zm-8.0957 0.0645c-15.824 0-23.721 11.071-23.824 20.008l0.16406 15.877c0.04048 3.9174-0.90171 6.75-4.9922 6.75s-7.9883-0.086-7.9883 3.5488 3.9341 3.5469 7.9883 3.5469c4.056-0.24486 6.2102-0.41156 10.148-1.4668 3.0272-0.81115 8.0627-1.9253 9.7188-6.3262 2.2501-5.9796 1.3184-14.416 1.3184-20.131 0.15306-6.0137 0.72675-7.5072 2.0801-8.9668 1.0528-0.77124 2.9771-1.4518 5.3713-1.7596 0-1.4488 0.0046-9.6164 0.0046-11.08zm55.418 37.271v16.683c5.9662-1.3556 12.858-4.694 18.158-10.628 0.0334-3.6294 1.0292-7.4114 19.059-7.4114h12.331c4.2148 0 6.7021-6.3978 6.7021-12.424 0-5.9434-6.6843-8.8496-14.492-8.8496-26.319 0-41.758 8.3083-41.758 22.629zm43.979-18.553c4e-3 -1e-5 8e-3 -1e-5 0.0117 0 1.4462 3.4e-4 2.6186 1.15 2.6191 2.5684 5.7e-4 1.4191-1.1721 2.57-2.6191 2.5703-1.447-3.4e-4 -2.6197-1.1512-2.6191-2.5703 5.1e-4 -1.4139 1.1658-2.5617 2.6074-2.5684zm-25.812 36.141c-3.0048 2.0841-5.1182 3.1674-8.2218 4.5187-3.434 1.3741-6.5517 2.3013-9.9497 2.8622v18.35c0 2.7694-1.819 5.2988-4.8184 6.4651 0 2.7599-2e-3 12.434-2e-3 14.622 11.614 0.0199 22.984-7.2607 22.984-21.093 1e-3 -8.5881 5e-3 -17.137 7e-3 -25.725z"/></g></svg>
